<?xml version="1.0" standalone="no"?><!DOCTYPE svg PUBLIC "-//W3C//DTD SVG 1.1//EN" "http://www.w3.org/Graphics/SVG/1.1/DTD/svg11.dtd"><svg t="1697545651872" class="icon" viewBox="0 0 1024 1024" version="1.1" xmlns="http://www.w3.org/2000/svg" p-id="10502" data-spm-anchor-id="a313x.search_index.0.i3.32033a81BiJIr6" width="200" height="200" xmlns:xlink="http://www.w3.org/1999/xlink"><path d="M649.386667 924.16c-66.133333 0-133.546667-6.4-134.826667-6.826667H512s-234.666667 21.76-256-17.066666a39.68 39.68 0 0 1 14.933333-53.333334 269.226667 269.226667 0 0 1 27.733334-17.493333 241.066667 241.066667 0 0 1-51.2-90.453333c-34.56 45.226667-48.64 45.226667-55.466667 45.226666a30.293333 30.293333 0 0 1-21.333333-11.946666c-15.786667-24.32-10.24-85.333333 14.506666-167.253334 7.68-23.466667 17.066667-49.92 26.88-75.093333H213.333333l34.133334-85.333333V422.4c0-148.48 69.546667-321.706667 264.533333-321.706667A239.36 239.36 0 0 1 689.92 170.666667a354.56 354.56 0 0 1 88.32 251.733333v23.04l3.84 8.96c8.106667 20.053333 24.32 58.453333 30.293333 74.24 13.226667 35.84 25.6 76.373333 25.6 76.373333 25.173333 83.2 30.293333 145.92 13.653334 168.533334a30.293333 30.293333 0 0 1-20.053334 10.666666c-5.973333 0-20.48 2.56-55.893333-44.8A236.373333 236.373333 0 0 1 725.333333 828.586667a267.093333 267.093333 0 0 1 32.853334 17.493333 42.666667 42.666667 0 0 1 16.64 54.613333c-10.666667 18.346667-67.413333 23.466667-125.44 23.466667zM298.666667 877.653333a1371.306667 1371.306667 0 0 0 207.786666-2.56h11.946667a1368.32 1368.32 0 0 0 207.786667 2.56A191.146667 191.146667 0 0 0 682.666667 857.6a20.906667 20.906667 0 0 1-14.933334-15.786667 21.76 21.76 0 0 1 7.253334-20.906666A194.133333 194.133333 0 0 0 741.973333 682.666667a21.333333 21.333333 0 0 1 15.36-20.48 21.76 21.76 0 0 1 24.32 9.386666 512 512 0 0 0 36.693334 53.76 434.346667 434.346667 0 0 0-21.333334-107.093333s-11.946667-39.68-24.746666-73.813333c-5.546667-15.36-21.333333-52.906667-29.866667-72.96a73.813333 73.813333 0 0 1-6.826667-20.906667V422.4a314.453333 314.453333 0 0 0-75.946666-222.293333A198.826667 198.826667 0 0 0 512 143.36c-162.986667 0-221.866667 144.213333-221.866667 279.04v27.306667a735.573333 735.573333 0 0 1-36.693333 96c-9.813333 24.746667-18.346667 49.92-25.6 72.106666A420.693333 420.693333 0 0 0 205.653333 725.333333a570.88 570.88 0 0 0 37.12-52.48 21.76 21.76 0 0 1 23.893334-8.96 21.333333 21.333333 0 0 1 15.36 20.48 191.573333 191.573333 0 0 0 70.4 138.666667 20.906667 20.906667 0 0 1 7.253333 20.48 21.333333 21.333333 0 0 1-14.933333 16.213333 229.973333 229.973333 0 0 0-46.08 17.92z m-91.306667-128z" p-id="10503" data-spm-anchor-id="a313x.search_index.0.i2.32033a81BiJIr6" class="selected" fill="#ffffff"/><path d="M514.133333 489.813333A1376.426667 1376.426667 0 0 1 273.066667 469.333333a10.666667 10.666667 0 0 1-8.533334-12.373333 10.666667 10.666667 0 0 1 12.373334-8.96 1332.906667 1332.906667 0 0 0 237.226666 21.333333 1354.24 1354.24 0 0 0 231.253334-20.053333 10.666667 10.666667 0 0 1 12.373333 8.533333 10.666667 10.666667 0 0 1-8.96 12.373334 1347.84 1347.84 0 0 1-234.666667 19.626666zM514.133333 586.24a1553.92 1553.92 0 0 1-282.026666-29.44 10.666667 10.666667 0 0 1-8.106667-12.8 10.24 10.24 0 0 1 12.373333-8.106667 1549.226667 1549.226667 0 0 0 277.76 29.013334 1519.786667 1519.786667 0 0 0 274.773334-28.586667 10.24 10.24 0 0 1 12.373333 8.533333 10.666667 10.666667 0 0 1-8.106667 12.373334 1563.306667 1563.306667 0 0 1-279.04 29.013333z" p-id="10504" data-spm-anchor-id="a313x.search_index.0.i4.32033a81BiJIr6" class="selected" fill="#ffffff"/><path d="M452.266667 704l-78.08-2.133333a25.6 25.6 0 0 1-25.173334-25.6v-110.506667a10.666667 10.666667 0 0 1 10.24-11.093333 10.666667 10.666667 0 0 1 10.666667 10.666666v110.506667a4.693333 4.693333 0 0 0 4.266667 4.266667l78.08 2.56a4.266667 4.266667 0 0 0 4.266666-4.266667v-102.826667a10.666667 10.666667 0 0 1 10.666667-10.666666 10.666667 10.666667 0 0 1 10.666667 10.666666v102.826667a24.32 24.32 0 0 1-7.68 18.346667 25.173333 25.173333 0 0 1-17.92 7.253333z" p-id="10505" data-spm-anchor-id="a313x.search_index.0.i9.32033a81BiJIr6" class="selected" fill="#ffffff"/></svg>